<?xml version="1.0" encoding="UTF-8"?>
<svg width="20px" height="20px" viewBox="0 0 20 20" version="1.1" xmlns="http://www.w3.org/2000/svg" xmlns:xlink="http://www.w3.org/1999/xlink">
    <title>价格</title>
    <g id="页面-1" stroke="none" stroke-width="1" fill="none" fill-rule="evenodd">
        <g id="未登录-白" transform="translate(-324, -435)" fill-rule="nonzero">
            <g id="价格" transform="translate(324, 435)">
                <rect id="矩形" fill="#000000" opacity="0" x="0" y="0" width="20" height="20"></rect>
                <g id="编组-4" transform="translate(2, 2)">
                    <path d="M4.74480088,11.2483359 C7.35532126,13.8610382 10.3891443,15.6557708 12.7022087,15.9557363 C15.015273,16.2557019 16.2557107,15.0152688 15.95575,12.7022073 C15.6557893,10.3891457 13.8610607,7.35532321 11.2483604,4.74480088 C8.63837571,2.1348161 5.6068646,0.342876421 3.29576802,0.043988202 C0.984671453,-0.254900017 -0.254900017,0.984671453 0.043988202,3.29576802 C0.342876421,5.6068646 2.1348161,8.63837571 4.74480088,11.2483604 L4.74480088,11.2483359 Z" id="路径" fill="#3BB029"></path>
                    <path d="M0.691136271,15.3020251 C1.85288493,16.4637737 4.31879479,16.1448639 7.15998148,14.4654259 C10.0011682,12.7859878 12.7859878,10.0011682 14.4654259,7.15998148 C16.1448639,4.31879479 16.4637737,1.85288493 15.3020251,0.691136271 C14.1402764,-0.470612457 11.6743666,-0.151702687 8.83317983,1.52773535 C5.99199311,3.20717339 3.20717339,5.99199311 1.52773535,8.83317983 C-0.151702687,11.6743666 -0.470612457,14.1402764 0.691136271,15.3020251 Z" id="路径" fill="#88DE5C"></path>
                    <path d="M5.31993943,7.99659293 C5.31993943,9.47478655 6.51825212,10.6730992 7.99644575,10.6730992 C9.47463937,10.6730992 10.6729521,9.47478655 10.6729521,7.99659293 C10.6729521,6.51839931 9.47463937,5.32008661 7.99644575,5.32008661 C6.51825212,5.32008661 5.31993943,6.51839931 5.31993943,7.99659293 L5.31993943,7.99659293 Z" id="路径" fill="#FFFFFF"></path>
                </g>
            </g>
        </g>
    </g>
</svg>