<?xml version="1.0" encoding="UTF-8"?>
<svg width="18px" height="18px" viewBox="0 0 18 18" version="1.1" xmlns="http://www.w3.org/2000/svg" xmlns:xlink="http://www.w3.org/1999/xlink">
    <title>收起</title>
    <g id="页面-2" stroke="none" stroke-width="1" fill="none" fill-rule="evenodd">
        <g id="左侧菜单栏-展开" transform="translate(-121, -44)">
            <g id="收起" transform="translate(121, 44)">
                <rect id="矩形" stroke="#EAEAEB" fill="#FFFFFF" x="0.5" y="0.5" width="17" height="17" rx="2"></rect>
                <path d="M5.5,7 L8.5,9 L5.5,11 L5.5,9.75 L3,9.75 C2.72385763,9.75 2.5,9.52614237 2.5,9.25 L2.5,8.75 C2.5,8.47385763 2.72385763,8.25 3,8.25 L5.5,8.25 L5.5,7 Z M12.5,11 L9.5,9 L12.5,7 L12.5,8.25 L15,8.25 C15.2761424,8.25 15.5,8.47385763 15.5,8.75 L15.5,9.25 C15.5,9.52614237 15.2761424,9.75 15,9.75 L12.5,9.75 L12.5,11 Z" id="形状结合备份" fill="#454545" fill-rule="nonzero"></path>
            </g>
        </g>
    </g>
</svg>