<?xml version="1.0" encoding="UTF-8"?>
<svg width="16px" height="16px" viewBox="0 0 16 16" version="1.1" xmlns="http://www.w3.org/2000/svg" xmlns:xlink="http://www.w3.org/1999/xlink">
    <title>对话</title>
    <g id="页面-1" stroke="none" stroke-width="1" fill="none" fill-rule="evenodd">
        <g id="IDE初始页B-登录" transform="translate(-23, -216)" fill-rule="nonzero">
            <g id="编组-12备份-2" transform="translate(11, 204)">
                <g id="对话" transform="translate(12, 12)">
                    <rect id="矩形" fill="#000000" opacity="0" x="0" y="0" width="16" height="16"></rect>
                    <path d="M12.5,1.4 C13.9359403,1.4 15.1,2.56405965 15.1,4 L15.1,9.5 C15.1,10.9359403 13.9359403,12.1 12.5,12.1 L8.453,12.1 L5.36582646,14.4755744 C4.99591574,14.7601211 4.47071671,14.5306805 4.40651179,14.090711 L4.4,14 L4.4,12.1 L3.5,12.1 C2.11928813,12.1 0.98994524,11.0237614 0.905115184,9.66442809 L0.9,9.5 L0.9,4 C0.9,2.56405965 2.06405965,1.4 3.5,1.4 L12.5,1.4 Z M12.5,2.6 L3.5,2.6 C2.72680135,2.6 2.1,3.22680135 2.1,4 L2.1,9.5 C2.1,10.2731986 2.72680135,10.9 3.5,10.9 L5,10.9 C5.33137085,10.9 5.6,11.1686292 5.6,11.5 L5.6,12.781 L7.88417354,11.0244256 C7.96283741,10.9639149 8.0548492,10.9241809 8.15176385,10.9080958 L8.25,10.9 L12.5,10.9 C13.2731986,10.9 13.9,10.2731986 13.9,9.5 L13.9,4 C13.9,3.22680135 13.2731986,2.6 12.5,2.6 Z M8,6 C8.41421356,6 8.75,6.33578644 8.75,6.75 C8.75,7.16421356 8.41421356,7.5 8,7.5 C7.58578644,7.5 7.25,7.16421356 7.25,6.75 C7.25,6.33578644 7.58578644,6 8,6 Z M5,6 C5.41421356,6 5.75,6.33578644 5.75,6.75 C5.75,7.16421356 5.41421356,7.5 5,7.5 C4.58578644,7.5 4.25,7.16421356 4.25,6.75 C4.25,6.33578644 4.58578644,6 5,6 Z M11,6 C11.4142136,6 11.75,6.33578644 11.75,6.75 C11.75,7.16421356 11.4142136,7.5 11,7.5 C10.5857864,7.5 10.25,7.16421356 10.25,6.75 C10.25,6.33578644 10.5857864,6 11,6 Z" id="形状结合" fill="#353535"></path>
                </g>
            </g>
        </g>
    </g>
</svg>