<?xml version="1.0" encoding="UTF-8"?>
<svg width="14px" height="14px" viewBox="0 0 14 14" version="1.1" xmlns="http://www.w3.org/2000/svg" xmlns:xlink="http://www.w3.org/1999/xlink">
    <title>资源服务-黑</title>
    <g id="页面-2" stroke="none" stroke-width="1" fill="none" fill-rule="evenodd">
        <g id="左侧菜单栏-收起" transform="translate(-13, -367)">
            <g id="资源服务-黑" transform="translate(13, 367)">
                <rect id="矩形" fill="#000000" fill-rule="nonzero" opacity="0" x="0" y="0" width="14" height="14"></rect>
                <path d="M12,9.5 C12.2761424,9.5 12.5,9.72385763 12.5,10 L12.5,12 C12.5,12.2761424 12.2761424,12.5 12,12.5 L2,12.5 C1.72385763,12.5 1.5,12.2761424 1.5,12 L1.5,10 C1.5,9.72385763 1.72385763,9.5 2,9.5 L12,9.5 Z M11,10.5 L8.5,10.5 L8.5,11.5 L11,11.5 L11,10.5 Z M12,5.5 C12.2761424,5.5 12.5,5.72385763 12.5,6 L12.5,8 C12.5,8.27614237 12.2761424,8.5 12,8.5 L2,8.5 C1.72385763,8.5 1.5,8.27614237 1.5,8 L1.5,6 C1.5,5.72385763 1.72385763,5.5 2,5.5 L12,5.5 Z M11,6.5 L8.5,6.5 L8.5,7.5 L11,7.5 L11,6.5 Z M12,1.5 C12.2761424,1.5 12.5,1.72385763 12.5,2 L12.5,4 C12.5,4.27614237 12.2761424,4.5 12,4.5 L2,4.5 C1.72385763,4.5 1.5,4.27614237 1.5,4 L1.5,2 C1.5,1.72385763 1.72385763,1.5 2,1.5 L12,1.5 Z M11,2.5 L8.5,2.5 L8.5,3.5 L11,3.5 L11,2.5 Z" id="形状结合" fill="#353535"></path>
            </g>
        </g>
    </g>
</svg>