<?xml version="1.0" encoding="UTF-8"?>
<svg width="20px" height="20px" viewBox="0 0 20 20" version="1.1" xmlns="http://www.w3.org/2000/svg" xmlns:xlink="http://www.w3.org/1999/xlink">
    <title>服务</title>
    <g id="页面-1" stroke="none" stroke-width="1" fill="none" fill-rule="evenodd">
        <g id="未登录-白" transform="translate(-324, -651)" fill-rule="nonzero">
            <g id="服务" transform="translate(324, 651)">
                <rect id="矩形" fill="#000000" opacity="0" x="0" y="0" width="20" height="20"></rect>
                <g id="编组-6" transform="translate(1.5, 1)">
                    <path d="M4.26715019,6.43749979 L5.5892321,15.7971804 C5.76842682,17.0658601 5.2236843,17.7898058 3.95500456,17.9690173 C2.68632481,18.1482288 1.96237918,17.6034863 1.78316767,16.3347897 L0.461085749,6.97510913 C0.281874233,5.70642939 0.826616749,4.98248376 2.0953133,4.80327224 C3.36398464,4.62406073 4.08793867,5.16880324 4.26715019,6.43749979 Z" id="路径" fill="#9D5CDC"></path>
                    <path d="M1.72456962,1.70778272 L13.5712826,0.0344109392 C14.8833999,-0.150933929 15.632131,0.412452297 15.8174759,1.72456962 L16.9655891,9.8528579 C17.1509339,11.1649584 16.5875477,11.9136811 15.2754304,12.099026 L3.42871738,13.772423 C2.11660006,13.957751 1.36787737,13.3943564 1.1825493,12.0822391 L0.0344109392,3.953976 C-0.150933929,2.64185868 0.412452297,1.89313599 1.72456962,1.70780792 L1.72456962,1.70778272 Z" id="路径" fill="#C895FB"></path>
                    <path d="M8.5653076,4.21614901 L9.30433456,5.29923183 C9.39633484,5.43382951 9.54857641,5.51473935 9.71165637,5.51549552 L11.0225974,5.52078868 C11.433196,5.52230102 11.6638268,5.99414906 11.4127795,6.31930076 L10.6112427,7.35676152 C10.511459,7.48578334 10.4816641,7.6556901 10.5315932,7.81096567 L10.9318574,9.05939695 C11.057129,9.4505872 10.6798018,9.81556368 10.2931486,9.67718517 L9.05883242,9.23533174 C8.90524326,9.18042266 8.73447402,9.204549 8.60210771,9.29985797 L7.53843317,10.066359 C7.2052157,10.3063159 6.74143344,10.0603096 6.7535321,9.64971111 L6.79234866,8.33927416 C6.79713772,8.1761942 6.72152105,8.02143208 6.58994803,7.92489479 L5.53232283,7.15007594 C5.2011218,6.90734642 5.29186181,6.39012837 5.68607673,6.27468692 L6.94433818,5.90643372 C7.1008773,5.86066284 7.22484325,5.74075052 7.27579126,5.58581902 L7.68588569,4.34066447 C7.81443403,3.95048243 8.33442469,3.87713426 8.56581171,4.21640107 L8.5653076,4.21614901 Z" id="路径" fill="#FFFFFF"></path>
                </g>
            </g>
        </g>
    </g>
</svg>