<?xml version="1.0" encoding="UTF-8"?>
<svg width="12px" height="12px" viewBox="0 0 12 12" version="1.1" xmlns="http://www.w3.org/2000/svg" xmlns:xlink="http://www.w3.org/1999/xlink">
    <title>开发</title>
    <g id="控件" stroke="none" stroke-width="1" fill="none" fill-rule="evenodd">
        <g id="作品卡片-D1" transform="translate(-180, -206)">
            <g id="编组-4备份-12" transform="translate(128, 200)">
                <g id="开发" transform="translate(52, 6)">
                    <rect id="矩形" x="0" y="0" width="12" height="12"></rect>
                    <path d="M5,0 C5.41421356,0 5.75,0.335786438 5.75,0.75 L5.74315338,0.851770557 C5.69349096,1.21784612 5.37969577,1.5 5,1.5 L1.5,1.5 L1.5,10.5 L10.5,10.5 L10.5,7 C10.5,6.58578644 10.8357864,6.25 11.25,6.25 C11.6642136,6.25 12,6.58578644 12,7 L12,11.25 C12,11.6642136 11.6642136,12 11.25,12 L0.75,12 C0.335786438,12 0,11.6642136 0,11.25 L0,0.75 C0,0.335786438 0.335786438,0 0.75,0 Z M11.25,4.54747351e-13 C11.6642136,4.54747351e-13 12,0.335786438 12,0.75 L12,3.57842712 C12,3.99264069 11.6642136,4.32842712 11.25,4.32842712 C10.8357864,4.32842712 10.5,3.99264069 10.5,3.57842712 L10.5,2.56 L6.30025253,6.76040764 C6.00735931,7.05330086 5.53248558,7.05330086 5.23959236,6.76040764 C4.94669914,6.46751442 4.94669914,5.99264069 5.23959236,5.69974747 L9.438,1.5 L8.42157288,1.5 C8.04187711,1.5 7.72808191,1.21784612 7.67841949,0.851770557 L7.67157288,0.75 C7.67157288,0.335786438 8.00735931,4.54747351e-13 8.42157288,4.54747351e-13 L11.25,4.54747351e-13 Z" id="形状结合" fill="#FFFFFF" fill-rule="nonzero"></path>
                </g>
            </g>
        </g>
    </g>
</svg>