<?xml version="1.0" encoding="UTF-8"?>
<svg width="12px" height="12px" viewBox="0 0 12 12" version="1.1" xmlns="http://www.w3.org/2000/svg" xmlns:xlink="http://www.w3.org/1999/xlink">
    <title>小程序</title>
    <g id="页面-2" stroke="none" stroke-width="1" fill="none" fill-rule="evenodd">
        <g id="左侧菜单栏-展开" transform="translate(-171, -305)">
            <g id="小程序" transform="translate(171, 305)">
                <rect id="矩形" x="0" y="0" width="12" height="12"></rect>
                <path d="M6,0 C9.3137085,0 12,2.6862915 12,6 C12,9.3137085 9.3137085,12 6,12 C2.6862915,12 0,9.3137085 0,6 C0,2.6862915 2.6862915,0 6,0 Z M6,1.5 C3.51471863,1.5 1.5,3.51471863 1.5,6 C1.5,8.48528137 3.51471863,10.5 6,10.5 C8.48528137,10.5 10.5,8.48528137 10.5,6 C10.5,3.51471863 8.48528137,1.5 6,1.5 Z M8.6102287,3.35170509 C9.32487519,4.0610719 9.65217655,4.83026218 9.54174184,5.57223273 C9.49126483,5.93521489 9.37961585,6.20509336 9.11666588,6.61869796 L9.00574177,6.79317496 L7.75385367,5.81377265 L7.85634689,5.66802718 C8.00588385,5.45538546 8.05111295,5.34526258 8.06586845,5.1645066 C8.09019972,4.88905482 7.95281164,4.58202305 7.66400548,4.29487795 C7.21370199,3.84796542 6.71814346,3.77652683 6.41565364,4.07723654 C6.22434792,4.26695007 6.1926747,4.48700705 6.31986935,4.80750039 L6.380787,4.93895092 C6.40540972,4.9861527 6.43800763,5.0428392 6.48955575,5.12730976 L6.92747803,5.82110431 C7.29579302,6.38826616 7.48659513,6.80943922 7.56012028,7.21437073 C7.65788352,7.85522041 7.46787115,8.39276233 6.97906621,8.87822285 C6.52718772,9.32661377 6.00695027,9.56246794 5.46161616,9.56246794 C4.79140712,9.55007286 4.13164449,9.21076242 3.46444114,8.54812406 C2.95522649,8.04239344 2.57887276,7.42185274 2.47532308,6.90766065 C2.39106726,6.47639475 2.44787655,6.04304785 2.64204242,5.60635997 C2.7288614,5.40928249 2.81840831,5.26845363 3.04292878,4.96846179 L3.15936365,4.81288796 L4.40296101,5.81486216 L4.27968441,5.96141429 C4.054158,6.22952174 3.99034688,6.35097387 3.96597399,6.54895054 C3.92156202,6.8796526 4.08172949,7.25431723 4.42855828,7.59876074 C4.95558434,8.12219303 5.46300707,8.19414307 5.82511746,7.83451023 C6.01915293,7.64180235 6.09024035,7.40035925 6.02721329,7.18598038 L5.98451153,7.05814221 L5.94783318,6.97138451 L5.89051116,6.86272468 C5.841535,6.77624341 5.76433478,6.64957139 5.63053205,6.43489955 L5.30639254,5.91759291 C4.94790899,5.35261846 4.79672371,4.99941312 4.74488693,4.5911058 C4.67263313,3.99748288 4.86446916,3.46298135 5.30328303,3.02759229 C6.20736824,2.1296928 7.52171226,2.2702279 8.6102287,3.35170509 Z" id="形状" fill="#FFFFFF" fill-rule="nonzero"></path>
            </g>
        </g>
    </g>
</svg>