<?xml version="1.0" encoding="UTF-8"?>
<svg width="20px" height="20px" viewBox="0 0 20 20" version="1.1" xmlns="http://www.w3.org/2000/svg" xmlns:xlink="http://www.w3.org/1999/xlink">
    <title>介绍</title>
    <g id="页面-1" stroke="none" stroke-width="1" fill="none" fill-rule="evenodd">
        <g id="未登录-白" transform="translate(-324, -219)" fill-rule="nonzero">
            <g id="介绍" transform="translate(324, 219)">
                <rect id="矩形" fill="#000000" opacity="0" x="0" y="0" width="20" height="20"></rect>
                <path d="M1.25952705,12 L1.25,16.934787 C1.24833561,17.7572928 2.10840988,18.2690687 2.78965919,17.8511308 L12.25,12.0465476 L1.25952705,12 Z" id="路径" fill="#FF8000"></path>
                <path d="M3.0649915,2 L16.9350085,2 C18.1450028,2 18.75,2.59225677 18.75,3.77677031 L18.75,12.2232297 C18.75,13.4077432 18.1450028,14 16.9350085,14 L3.0649915,14 C1.85499717,14 1.25,13.4077432 1.25,12.2232297 L1.25,3.77677031 C1.25,2.59225677 1.85499717,2 3.0649915,2 Z" id="路径" fill="#FFBC1D"></path>
                <path d="M4.75,7.99510158 C4.75,8.64961511 5.28058805,9.18020316 5.93510158,9.18020316 C6.58961511,9.18020316 7.12020316,8.64961511 7.12020316,7.99510158 C7.12020316,7.34058805 6.58961511,6.81 5.93510158,6.81 C5.28058805,6.81 4.75,7.34058805 4.75,7.99510158 L4.75,7.99510158 Z M8.81489842,7.99510158 C8.81489842,8.64961511 9.34548647,9.18020316 10,9.18020316 C10.6545135,9.18020316 11.1851016,8.64961511 11.1851016,7.99510158 C11.1851016,7.34058805 10.6545135,6.81 10,6.81 C9.34548647,6.81 8.81489842,7.34058805 8.81489842,7.99510158 L8.81489842,7.99510158 Z M12.8797968,7.99510158 C12.8797968,8.64961511 13.4103849,9.18020316 14.0648984,9.18020316 C14.7194119,9.18020316 15.25,8.64961511 15.25,7.99510158 C15.25,7.34058805 14.7194119,6.81 14.0648984,6.81 C13.4103849,6.81 12.8797968,7.34058805 12.8797968,7.99510158 L12.8797968,7.99510158 Z" id="形状" fill="#FFFFFF"></path>
            </g>
        </g>
    </g>
</svg>