<?xml version="1.0" encoding="UTF-8"?>
<svg width="14px" height="14px" viewBox="0 0 14 14" version="1.1" xmlns="http://www.w3.org/2000/svg" xmlns:xlink="http://www.w3.org/1999/xlink">
    <title>账号设置-黑</title>
    <g id="页面-2" stroke="none" stroke-width="1" fill="none" fill-rule="evenodd">
        <g id="左侧菜单栏-收起" transform="translate(-13, -701)">
            <g id="账号设置-黑" transform="translate(13, 701)">
                <rect id="矩形" fill="#000000" fill-rule="nonzero" opacity="0" x="0" y="0" width="14" height="14"></rect>
                <path d="M7,8 C8.93299662,8 10.5,6.43299662 10.5,4.5 C10.5,2.56700338 8.93299662,1 7,1 C5.06700338,1 3.5,2.56700338 3.5,4.5 C3.5,6.43299662 5.06700338,8 7,8 Z M10.0857864,8.5 C10.3510029,8.5 10.6053568,8.60535684 10.7928932,8.79289322 L11.7071068,9.70710678 C11.8946432,9.89464316 12,10.1489971 12,10.4142136 L12,12.5 C12,12.7761424 11.7761424,13 11.5,13 L2.5,13 C2.22385763,13 2,12.7761424 2,12.5 L2,10.4142136 C2,10.1489971 2.10535684,9.89464316 2.29289322,9.70710678 L3.20710678,8.79289322 C3.39464316,8.60535684 3.64899707,8.5 3.91421356,8.5 L10.0857864,8.5 Z M9.879,10 L4.12,10 L3.5,10.62 L3.5,11.5 L10.5,11.5 L10.5,10.621 L9.879,10 Z" id="形状结合" fill="#353535"></path>
            </g>
        </g>
    </g>
</svg>