<?xml version="1.0" encoding="UTF-8"?>
<svg width="20px" height="20px" viewBox="0 0 20 20" version="1.1" xmlns="http://www.w3.org/2000/svg" xmlns:xlink="http://www.w3.org/1999/xlink">
    <title>企业</title>
    <g id="页面-1" stroke="none" stroke-width="1" fill="none" fill-rule="evenodd">
        <g id="未登录-白" transform="translate(-324, -543)" fill-rule="nonzero">
            <g id="企业" transform="translate(324, 543)">
                <rect id="矩形" fill="#000000" opacity="0" x="0" y="0" width="20" height="20"></rect>
                <path d="M10.13,18 L15.6882742,18 C16.9656622,18 18.0014305,16.9644873 18.0014305,15.6868436 L18.0014305,10.5143938 C18.0014305,9.56248919 17.4182196,8.70774378 16.5317696,8.36052742 L10.1302557,5.85356398 L10.1302557,17.9997443 L10.13,18 Z" id="路径" fill="#F74E59"></path>
                <path d="M10.5622837,18 L4.00608212,18 C2.89821138,18 2,17.1017886 2,15.9939179 L2,6.57561036 C2,5.75001271 2.50573928,5.00879017 3.2745755,4.7075966 L9.83077708,2.1400365 C11.1465174,1.62483697 12.5683658,2.59489503 12.5683658,4.00805025 L12.5683658,15.9939179 C12.5683658,17.1017886 11.6701544,18 10.5622837,18 Z" id="路径" fill="#FF8484"></path>
                <path d="M9.75407244,9.35717643 C9.75407244,10.0802455 9.39253788,10.4417801 8.66946877,10.4417801 L5.90017545,10.4417801 C5.17710634,10.4417801 4.81557179,10.0802455 4.81557179,9.35717643 C4.81557179,8.63410732 5.17710634,8.27257276 5.90017545,8.27257276 L8.66946877,8.27257276 C9.39253788,8.27257276 9.75407244,8.63410732 9.75407244,9.35717643 L9.75407244,9.35717643 Z M9.75381675,13.2780621 C9.75381675,14.0011312 9.3922822,14.3626658 8.66921309,14.3626658 L5.89991977,14.3626658 C5.17685066,14.3626658 4.81531611,14.0011312 4.81531611,13.2780621 C4.81531611,12.554993 5.17685066,12.1934585 5.89991977,12.1934585 L8.66921309,12.1934585 C9.3922822,12.1934585 9.75381675,12.554993 9.75381675,13.2780621 L9.75381675,13.2780621 Z" id="形状" fill="#FFFFFF"></path>
            </g>
        </g>
    </g>
</svg>