<?xml version="1.0" encoding="UTF-8"?>
<svg width="16px" height="16px" viewBox="0 0 16 16" version="1.1" xmlns="http://www.w3.org/2000/svg" xmlns:xlink="http://www.w3.org/1999/xlink">
    <title>欢迎-蓝</title>
    <g id="页面-1" stroke="none" stroke-width="1" fill="none" fill-rule="evenodd">
        <g id="IDE初始页B-登录" transform="translate(-23, -63)" fill-rule="nonzero">
            <g id="编组-16" transform="translate(11, 51)">
                <g id="欢迎-蓝" transform="translate(12, 12)">
                    <rect id="矩形" fill="#000000" opacity="0" x="0" y="0" width="16" height="16"></rect>
                    <path d="M8,0.4 C12.1973641,0.4 15.6,3.8026359 15.6,8 C15.6,9.94914043 14.8617587,11.7811064 13.5692105,13.1716418 L13.529,13.212 L14.4992746,14.6672466 C14.7473066,15.0394022 14.5148417,15.5293992 14.0931522,15.5930781 L14,15.6 L8,15.6 C3.8026359,15.6 0.4,12.1973641 0.4,8 C0.4,3.8026359 3.8026359,0.4 8,0.4 Z M8,1.6 C4.4653776,1.6 1.6,4.4653776 1.6,8 C1.6,11.5346224 4.4653776,14.4 8,14.4 L12.879,14.4 L12.257869,13.467929 C12.1126554,13.2500455 12.1271263,12.9671051 12.2838717,12.7662862 L12.3492864,12.695116 C13.6484807,11.4909934 14.4,9.8064595 14.4,8 C14.4,4.61905684 11.7783691,1.85042838 8.45706187,1.61606928 L8.22954745,1.60403988 L8,1.6 Z M8.88357768,5.1508414 L8.9802868,5.16428776 C9.30376673,5.23617219 9.50772519,5.55667834 9.43584076,5.88015827 L8.43584076,10.3801583 C8.36395633,10.7036382 8.04345018,10.9075967 7.71997025,10.8357122 C7.39649031,10.7638278 7.19253186,10.4433217 7.26441629,10.1198417 L7.602,8.6 L5.831,8.6 L5.43584076,10.3801583 C5.36395633,10.7036382 5.04345018,10.9075967 4.71997025,10.8357122 C4.39649031,10.7638278 4.19253186,10.4433217 4.26441629,10.1198417 L5.26441629,5.61984173 C5.32192383,5.36105778 5.53854927,5.17876758 5.78852087,5.15300768 L5.88357768,5.1508414 L5.9802868,5.16428776 C6.30376673,5.23617219 6.50772519,5.55667834 6.43584076,5.88015827 L6.097,7.4 L7.868,7.4 L8.26441629,5.61984173 C8.32192383,5.36105778 8.53854927,5.17876758 8.78852087,5.15300768 L8.88357768,5.1508414 Z M10.8708249,7.15026545 L10.9677982,7.16165159 C11.2927341,7.22663876 11.5034641,7.54273383 11.4384769,7.86766968 L10.9384769,10.3676697 C10.8734898,10.6926055 10.5573947,10.9033356 10.2324588,10.8383484 C9.90752299,10.7733612 9.69679295,10.4572662 9.76178012,10.1323303 L10.2617801,7.63233032 C10.3137699,7.37238164 10.5264686,7.18552467 10.7758357,7.15445327 L10.8708249,7.15026545 Z M11.3501285,5 C11.7643421,5 12.1001285,5.33578644 12.1001285,5.75 C12.1001285,6.16421356 11.7643421,6.5 11.3501285,6.5 C10.935915,6.5 10.6001285,6.16421356 10.6001285,5.75 C10.6001285,5.33578644 10.935915,5 11.3501285,5 Z" id="形状结合" fill="#417FF9"></path>
                </g>
            </g>
        </g>
    </g>
</svg>