<?xml version="1.0" encoding="UTF-8"?>
<svg width="12px" height="12px" viewBox="0 0 12 12" version="1.1" xmlns="http://www.w3.org/2000/svg" xmlns:xlink="http://www.w3.org/1999/xlink">
    <title>拥有者</title>
    <g id="控件" stroke="none" stroke-width="1" fill="none" fill-rule="evenodd">
        <g id="作品卡片-A3" transform="translate(-12, -44)" fill-rule="nonzero">
            <g id="拥有者" transform="translate(12, 44)">
                <rect id="矩形" fill="#000000" opacity="0" x="0" y="0" width="12" height="12"></rect>
                <path d="M9.33332813,9.26667188 L8.73332813,8.66667188 L3.93332813,8.66667188 L3.33332813,9.26667188 L3.33332813,10 L9.33332813,10 L9.33332813,9.26667188 L9.33332813,9.26667188 Z M10.6666719,8.66667188 L10.6666719,11.3333281 L2,11.3333281 L2,8.66667188 L2.06667188,8.66667188 L3.4,7.33332813 L9.26667188,7.33332813 L10.6666719,8.66667188 L10.6666719,8.66667188 Z M9.33332813,3.66667188 C9.33332813,5.33332813 8,6.66667188 6.33332813,6.66667188 C4.66665625,6.66667188 3.33332813,5.33332813 3.33332813,3.66667188 C3.33332813,2.00001563 4.66667188,0.666671875 6.33332813,0.666671875 C7.99998438,0.666671875 9.33332813,2 9.33332813,3.66667188 Z M8,3.66667188 C8,2.73332813 7.26667188,2 6.33332813,2 C5.39998438,2 4.66667188,2.73332813 4.66667188,3.66667188 C4.66667188,4.60001563 5.4,5.33332813 6.33332813,5.33332813 C7.26665625,5.33332813 8,4.6 8,3.66667188 L8,3.66667188 Z" id="形状" fill="#FFFFFF"></path>
            </g>
        </g>
    </g>
</svg>