<?xml version="1.0" encoding="UTF-8"?>
<svg width="20px" height="20px" viewBox="0 0 20 20" version="1.1" xmlns="http://www.w3.org/2000/svg" xmlns:xlink="http://www.w3.org/1999/xlink">
    <title>操作</title>
    <g id="页面-1" stroke="none" stroke-width="1" fill="none" fill-rule="evenodd">
        <g id="未登录-白" transform="translate(-324, -325)" fill-rule="nonzero">
            <g id="操作" transform="translate(324, 325)">
                <rect id="矩形" fill="#000000" opacity="0" x="0" y="0" width="20" height="20"></rect>
                <g id="编组-5" transform="translate(1, 1.5)">
                    <path d="M15.4525701,11.3886911 L15.4525701,5.61130894 C15.4525701,4.63866826 14.9336559,3.73975168 14.0911318,3.25343134 L9.0877233,0.364740268 C8.24524235,-0.121580089 7.20732771,-0.121580089 6.36484676,0.364740268 L1.36143827,3.25343134 C0.518914148,3.73975168 0,4.63866826 0,5.61130894 L0,11.3886911 C0,12.3613318 0.518914148,13.2602483 1.36143827,13.7465687 L6.36484676,16.6352597 C7.20737088,17.1215801 8.24519918,17.1215801 9.0877233,16.6352597 L14.0911318,13.7465687 C14.9336559,13.2602483 15.4525701,12.3613318 15.4525701,11.3886911 Z" id="路径" fill="#89B0FF"></path>
                    <path d="M17.9952223,14.0662984 L17.9952223,11.1067288 C17.9952223,10.6638668 17.7590465,10.2546334 17.3754226,10.0332025 L14.8124109,8.55354698 C14.4288775,8.33211386 13.9563448,8.33211386 13.5728114,8.55354698 L11.0097997,10.0332025 C10.6262385,10.2546085 10.39,10.6638519 10.39,11.1067288 L10.39,14.0662984 C10.39,14.5091604 10.6261758,14.9183937 11.0097997,15.1398247 L13.5728114,16.6194802 C13.9563448,16.8409133 14.4288775,16.8409133 14.8124109,16.6194802 L17.3754226,15.1398247 C17.7589838,14.9184186 17.9952223,14.5091753 17.9952223,14.0662984 L17.9952223,14.0662984 Z" id="路径" fill="#5289F9"></path>
                    <path d="M4.87225722,8.50000001 C4.87225722,10.0763789 6.15016481,11.3542865 7.72654371,11.3542865 C9.30292261,11.3542865 10.5808302,10.0763789 10.5808302,8.50000001 C10.5808302,6.9236211 9.30292261,5.64571351 7.72654371,5.64571351 C6.15016481,5.64571351 4.87225722,6.9236211 4.87225722,8.50000001 L4.87225722,8.50000001 Z" id="路径" fill="#FFFFFF"></path>
                </g>
            </g>
        </g>
    </g>
</svg>