<?xml version="1.0" encoding="UTF-8"?>
<svg width="14px" height="14px" viewBox="0 0 14 14" version="1.1" xmlns="http://www.w3.org/2000/svg" xmlns:xlink="http://www.w3.org/1999/xlink">
    <title>财务中心-黑</title>
    <g id="页面-2" stroke="none" stroke-width="1" fill="none" fill-rule="evenodd">
        <g id="左侧菜单栏-收起" transform="translate(-13, -516)" fill-rule="nonzero">
            <g id="财务中心-黑" transform="translate(13, 516)">
                <rect id="矩形" fill="#000000" opacity="0" x="0" y="0" width="14" height="14"></rect>
                <path d="M12.5,2 C12.7761424,2 13,2.22385763 13,2.5 L13,11.5 C13,11.7761424 12.7761424,12 12.5,12 L1.5,12 C1.22385763,12 1,11.7761424 1,11.5 L1,2.5 C1,2.22385763 1.22385763,2 1.5,2 L12.5,2 Z M11.5,5.5 L2.5,5.5 L2.5,10.5 L11.5,10.5 L11.5,5.5 Z M10,8 L10,9 L7.5,9 L7.5,8 L10,8 Z" id="形状结合" fill="#353535"></path>
            </g>
        </g>
    </g>
</svg>