<?xml version="1.0" encoding="UTF-8"?>
<svg width="14px" height="14px" viewBox="0 0 14 14" version="1.1" xmlns="http://www.w3.org/2000/svg" xmlns:xlink="http://www.w3.org/1999/xlink">
    <title>个人工作台-黑</title>
    <g id="页面-2" stroke="none" stroke-width="1" fill="none" fill-rule="evenodd">
        <g id="左侧菜单栏-收起" transform="translate(-13, -69)">
            <g id="个人工作台-黑" transform="translate(13, 69)">
                <rect id="矩形" fill="#000000" fill-rule="nonzero" opacity="0" x="0" y="0" width="14" height="14"></rect>
                <path d="M2,1.5 L6,1.5 C6.27614237,1.5 6.5,1.72385763 6.5,2 L6.5,6 C6.5,6.27614237 6.27614237,6.5 6,6.5 L2,6.5 C1.72385763,6.5 1.5,6.27614237 1.5,6 L1.5,2 C1.5,1.72385763 1.72385763,1.5 2,1.5 Z M2,7.5 L6,7.5 C6.27614237,7.5 6.5,7.72385763 6.5,8 L6.5,12 C6.5,12.2761424 6.27614237,12.5 6,12.5 L2,12.5 C1.72385763,12.5 1.5,12.2761424 1.5,12 L1.5,8 C1.5,7.72385763 1.72385763,7.5 2,7.5 Z M8,7.5 L12,7.5 C12.2761424,7.5 12.5,7.72385763 12.5,8 L12.5,12 C12.5,12.2761424 12.2761424,12.5 12,12.5 L8,12.5 C7.72385763,12.5 7.5,12.2761424 7.5,12 L7.5,8 C7.5,7.72385763 7.72385763,7.5 8,7.5 Z M12,1.5 C12.2761424,1.5 12.5,1.72385763 12.5,2 L12.5,6 C12.5,6.27614237 12.2761424,6.5 12,6.5 L8,6.5 C7.72385763,6.5 7.5,6.27614237 7.5,6 L7.5,2 C7.5,1.72385763 7.72385763,1.5 8,1.5 L12,1.5 Z M11,3 L9,3 L9,5 L11,5 L11,3 Z" id="形状结合" fill="#353535"></path>
            </g>
        </g>
    </g>
</svg>