<?xml version="1.0" encoding="UTF-8"?>
<svg width="14px" height="14px" viewBox="0 0 14 14" version="1.1" xmlns="http://www.w3.org/2000/svg" xmlns:xlink="http://www.w3.org/1999/xlink">
    <title>消息中心-黑</title>
    <g id="页面-2" stroke="none" stroke-width="1" fill="none" fill-rule="evenodd">
        <g id="左侧菜单栏-收起" transform="translate(-13, -665)" fill-rule="nonzero">
            <g id="消息中心-黑" transform="translate(13, 665)">
                <rect id="矩形" fill="#000000" opacity="0" x="0" y="0" width="14" height="14"></rect>
                <path d="M9.21932362,9.73170054 L10.9003236,10.7018911 L10.9003236,12.6427005 L9.21932362,11.6726497 L9.21932362,9.73170054 Z M13.2813236,9.73070054 L13.2815014,11.6726497 L11.6003236,12.6427005 L11.6003236,10.7018911 L13.2813236,9.73070054 Z M12.2504125,2 C12.5265549,2 12.7504125,2.22385763 12.7504125,2.5 L12.7504125,7.866 L11.2504125,7 L11.2504125,4.97425511 L6.75041253,7 L2.25041253,4.97425511 L2.25041253,9.5 L8.21841253,9.5 L8.21841253,11 L1.25041253,11 C0.974270154,11 0.750412529,10.7761424 0.750412529,10.5 L0.750412529,2.5 C0.750412529,2.22385763 0.974270154,2 1.25041253,2 L12.2504125,2 Z M11.2504125,8.15470054 L12.9313236,9.12470054 L11.2503236,10.095 L9.56932362,9.12470054 L11.2504125,8.15470054 Z" id="形状" fill="#353535"></path>
            </g>
        </g>
    </g>
</svg>