<?xml version="1.0" encoding="UTF-8"?>
<svg width="16px" height="16px" viewBox="0 0 16 16" version="1.1" xmlns="http://www.w3.org/2000/svg" xmlns:xlink="http://www.w3.org/1999/xlink">
    <title>新对话</title>
    <g id="页面-1" stroke="none" stroke-width="1" fill="none" fill-rule="evenodd">
        <g id="IDE初始页B-登录" transform="translate(-75, -943)">
            <g id="编组-12" transform="translate(1, 931)">
                <g id="新对话" transform="translate(74, 12)">
                    <rect id="矩形" fill="#000000" fill-rule="nonzero" opacity="0" x="0" y="0" width="16" height="16"></rect>
                    <path d="M14.5,6.5 L14.5,9.5 C14.5,10.6045695 13.6045695,11.5 12.5,11.5 L8.25,11.5 L5,14 L5,11.5 L3.5,11.5 C2.3954305,11.5 1.5,10.6045695 1.5,9.5 L1.5,4 C1.5,2.8954305 2.3954305,2 3.5,2 L8.75,2" id="路径" stroke="#353535" stroke-width="1.2" stroke-linecap="round" stroke-linejoin="round"></path>
                    <path d="M8,7.5 C8.41421356,7.5 8.75,7.16421356 8.75,6.75 C8.75,6.33578644 8.41421356,6 8,6 C7.58578644,6 7.25,6.33578644 7.25,6.75 C7.25,7.16421356 7.58578644,7.5 8,7.5 Z M5,7.5 C5.41421356,7.5 5.75,7.16421356 5.75,6.75 C5.75,6.33578644 5.41421356,6 5,6 C4.58578644,6 4.25,6.33578644 4.25,6.75 C4.25,7.16421356 4.58578644,7.5 5,7.5 Z M11,7.5 C11.4142136,7.5 11.75,7.16421356 11.75,6.75 C11.75,6.33578644 11.4142136,6 11,6 C10.5857864,6 10.25,6.33578644 10.25,6.75 C10.25,7.16421356 10.5857864,7.5 11,7.5 Z" id="形状结合" fill="#353535"></path>
                    <path d="M11.2082681,3.26315373 L10,3 L10,3 L11.2082681,2.73684627 C11.9729892,2.57029449 12.5702945,1.97298918 12.7368463,1.20826808 L13,0 L13,0 L13.2631537,1.20826808 C13.4297055,1.97298918 14.0270108,2.57029449 14.7917319,2.73684627 L16,3 L16,3 L14.7917319,3.26315373 C14.0270108,3.42970551 13.4297055,4.02701082 13.2631537,4.79173192 L13,6 L13,6 L12.7368463,4.79173192 C12.5702945,4.02701082 11.9729892,3.42970551 11.2082681,3.26315373 Z" id="星形" fill="#353535"></path>
                </g>
            </g>
        </g>
    </g>
</svg>